Coordinates
version=1
nRows=24
nColumns=38
inDegrees=no

Units are S.I. units (second, meters, Newtons, ...)
If the header above contains a line with 'inDegrees', this indicates whether rotational values are in degrees (yes) or radians (no).

endheader
time	pelvis_tilt	pelvis_list	pelvis_rotation	pelvis_tx	pelvis_ty	pelvis_tz	hip_flexion_r	hip_adduction_r	hip_rotation_r	knee_angle_r	ankle_angle_r	subtalar_angle_r	mtp_angle_r	hip_flexion_l	hip_adduction_l	hip_rotation_l	knee_angle_l	ankle_angle_l	subtalar_angle_l	mtp_angle_l	lumbar_extension	lumbar_bending	lumbar_rotation	arm_flex_r	arm_add_r	arm_rot_r	elbow_flex_r	pro_sup_r	wrist_flex_r	wrist_dev_r	arm_flex_l	arm_add_l	arm_rot_l	elbow_flex_l	pro_sup_l	wrist_flex_l	wrist_dev_l
0.52	-2.58108	1.28503	1.20019	0.756	0.876788	1.03018	0.362318	0.151708	-0.17422	0.168699	-0.116246	0	0	0.393019	-0.180331	0.112153	1.16698	-0.222056	0	0	0.200777	0.149437	-0.100305	-0.0802214	-0.230261	0.254175	0.347598	1.5708	0	0	-0.00111126	-0.277129	0.596502	0.552907	1.15027	0	0
0.53	-2.59178	1.29377	1.20677	0.755413	0.864725	1.03302	0.33743	0.149946	-0.176629	0.16038	-0.119056	0	0	0.403371	-0.174316	0.105434	1.16582	-0.196945	0	0	0.191701	0.141844	-0.0911737	-0.0747186	-0.231334	0.238851	0.363175	1.5708	0	0	-0.00508372	-0.278479	0.605324	0.541683	1.14217	0	0
0.54	-2.60427	1.30157	1.21413	0.754784	0.85267	1.03575	0.313438	0.14827	-0.179497	0.151483	-0.122338	0	0	0.413823	-0.169289	0.0969059	1.15916	-0.177239	0	0	0.185873	0.134642	-0.0859723	-0.0679432	-0.232768	0.228468	0.378278	1.5708	0	0	-0.0133325	-0.279469	0.607967	0.530796	1.13406	0	0
0.55	-2.6242	1.30711	1.22695	0.754025	0.840527	1.03827	0.292119	0.145941	-0.180593	0.142279	-0.127074	0	0	0.425727	-0.165557	0.082534	1.14635	-0.160967	0	0	0.182195	0.126466	-0.077438	-0.0635139	-0.234297	0.217794	0.395357	1.5708	0	0	-0.0221978	-0.28082	0.60865	0.52228	1.12445	0	0
0.56	-2.64527	1.31201	1.24071	0.75325	0.828551	1.04067	0.271368	0.143451	-0.180614	0.132249	-0.133733	0	0	0.43757	-0.163025	0.0658957	1.12853	-0.145224	0	0	0.178415	0.1185	-0.0688596	-0.0604716	-0.23617	0.20586	0.415856	1.5708	0	0	-0.031308	-0.282464	0.607849	0.515647	1.11042	0	0
0.57	-2.66606	1.31629	1.25424	0.752566	0.816702	1.04295	0.251432	0.140917	-0.181965	0.1227	-0.139581	0	0	0.449107	-0.160869	0.0493104	1.10608	-0.133178	0	0	0.175374	0.11115	-0.0619644	-0.0568882	-0.238339	0.195682	0.43678	1.5708	0	0	-0.0409977	-0.283336	0.605966	0.50803	1.09915	0	0
0.58	-2.68434	1.32048	1.26491	0.75191	0.804889	1.04511	0.231132	0.139035	-0.184442	0.112671	-0.147185	0	0	0.459228	-0.159685	0.0317514	1.07906	-0.122077	0	0	0.171254	0.104917	-0.0540343	-0.0547154	-0.24113	0.185465	0.460411	1.5708	0	0	-0.0497422	-0.283473	0.603948	0.500026	1.08567	0	0
0.59	-2.70272	1.32374	1.27457	0.751188	0.793225	1.04702	0.212262	0.137372	-0.188163	0.103758	-0.154784	0	0	0.469058	-0.159904	0.0116967	1.04755	-0.112337	0	0	0.167656	0.0993081	-0.0456635	-0.0523714	-0.244227	0.176938	0.484662	1.5708	0	0	-0.0586709	-0.283451	0.601066	0.492614	1.07203	0	0
0.6	-2.72257	1.32703	1.28454	0.750437	0.781823	1.04874	0.193471	0.135103	-0.188152	0.0943804	-0.162957	0	0	0.477755	-0.161197	-0.012922	1.01155	-0.104042	0	0	0.162988	0.0938049	-0.0365182	-0.0498034	-0.247594	0.168092	0.510592	1.5708	0	0	-0.0667213	-0.283436	0.598434	0.485853	1.05932	0	0
0.61	-2.74315	1.32944	1.29544	0.749755	0.77038	1.05014	0.175251	0.132727	-0.187463	0.0841765	-0.171052	0	0	0.486222	-0.162911	-0.0394398	0.971819	-0.0977472	0	0	0.159478	0.0884877	-0.0279992	-0.0482366	-0.251197	0.16038	0.537685	1.5708	0	0	-0.0747695	-0.283107	0.59581	0.479222	1.04669	0	0
0.62	-2.76476	1.3315	1.306	0.749012	0.758755	1.05125	0.157579	0.13014	-0.187038	0.074984	-0.178575	0	0	0.493089	-0.165609	-0.0699379	0.928273	-0.0943045	0	0	0.156763	0.083337	-0.0186838	-0.0472325	-0.255193	0.155399	0.564912	1.5708	0	0	-0.083615	-0.282992	0.593166	0.473582	1.03421	0	0
0.63	-2.78711	1.33346	1.31583	0.74819	0.747039	1.05211	0.140258	0.127458	-0.186184	0.0668009	-0.185314	0	0	0.498165	-0.16915	-0.104167	0.881065	-0.0942358	0	0	0.154259	0.0783061	-0.00843225	-0.0460495	-0.258939	0.15072	0.591417	1.5708	0	0	-0.0926867	-0.282734	0.59021	0.468269	1.02194	0	0
0.64	-2.80469	1.33632	1.32309	0.747613	0.735505	1.05277	0.121683	0.125008	-0.186289	0.0578499	-0.191984	0	0	0.501328	-0.171399	-0.13518	0.83036	-0.0972144	0	0	0.149517	0.0741038	-0.000377294	-0.0445624	-0.262495	0.143825	0.618912	1.5708	0	0	-0.10034	-0.282173	0.587729	0.46315	1.01062	0	0
0.65	-2.81893	1.33905	1.32808	0.747166	0.724062	1.05318	0.103707	0.122642	-0.187509	0.0498826	-0.198087	0	0	0.503081	-0.172058	-0.161966	0.775471	-0.103559	0	0	0.144014	0.0707482	0.00680207	-0.0432743	-0.265975	0.135778	0.647	1.5708	0	0	-0.106864	-0.281524	0.586175	0.458548	1.00027	0	0
0.66	-2.8326	1.34118	1.33196	0.746683	0.712627	1.05327	0.0874146	0.120426	-0.18938	0.0444496	-0.202051	0	0	0.503488	-0.171174	-0.185036	0.715976	-0.112773	0	0	0.138806	0.0676879	0.014576	-0.0418689	-0.269786	0.13004	0.674324	1.5708	0	0	-0.11262	-0.280799	0.585904	0.45375	0.991887	0	0
0.67	-2.84534	1.34309	1.33443	0.7462	0.701143	1.05304	0.0717669	0.118413	-0.190182	0.0403155	-0.203549	0	0	0.501971	-0.168579	-0.203912	0.651365	-0.124726	0	0	0.133717	0.0650076	0.0225707	-0.0401169	-0.273371	0.124284	0.70055	1.5708	0	0	-0.118035	-0.279565	0.585238	0.448788	0.983931	0	0
0.68	-2.8564	1.34338	1.33607	0.745835	0.68973	1.05238	0.0583637	0.116821	-0.190046	0.0374804	-0.203086	0	0	0.500783	-0.165091	-0.22049	0.582513	-0.139459	0	0	0.130118	0.0632314	0.0294815	-0.0385119	-0.276483	0.117036	0.726217	1.5708	0	0	-0.12356	-0.278157	0.584454	0.444788	0.975518	0	0
0.69	-2.86545	1.34199	1.33669	0.745601	0.678339	1.05128	0.0472874	0.115675	-0.18981	0.035985	-0.201482	0	0	0.500291	-0.160862	-0.233793	0.510833	-0.154823	0	0	0.128571	0.0622936	0.034613	-0.036625	-0.280042	0.11288	0.750373	1.5708	0	0	-0.12931	-0.276617	0.583927	0.441049	0.968556	0	0
0.7	-2.87183	1.33954	1.33523	0.74548	0.66694	1.04979	0.0376447	0.114995	-0.18877	0.0355067	-0.198683	0	0	0.499861	-0.156216	-0.243475	0.436893	-0.173853	0	0	0.127857	0.0623127	0.0392915	-0.0351152	-0.283863	0.109224	0.773937	1.5708	0	0	-0.134287	-0.274816	0.584613	0.43714	0.962358	0	0
0.71	-2.87583	1.3356	1.33195	0.745483	0.655555	1.04789	0.0299552	0.114843	-0.186733	0.0362547	-0.194447	0	0	0.500331	-0.151268	-0.249056	0.362083	-0.193764	0	0	0.1286	0.0633372	0.0432749	-0.0336893	-0.287974	0.10662	0.796332	1.5708	0	0	-0.13887	-0.272837	0.58604	0.4334	0.956395	0	0
0.72	-2.87733	1.32995	1.32657	0.745591	0.64419	1.04554	0.0244784	0.115426	-0.183771	0.0381507	-0.189059	0	0	0.50253	-0.146581	-0.251302	0.288582	-0.212085	0	0	0.131262	0.0655049	0.0463901	-0.0327254	-0.291948	0.103303	0.818345	1.5708	0	0	-0.143282	-0.270638	0.58831	0.429633	0.950893	0	0
0.73	-2.87716	1.32291	1.32002	0.745751	0.632788	1.0428	0.0207716	0.116613	-0.180044	0.041163	-0.182507	0	0	0.506524	-0.142459	-0.250805	0.218413	-0.226612	0	0	0.135561	0.0684585	0.0488817	-0.0321108	-0.295984	0.100781	0.839181	1.5708	0	0	-0.147504	-0.268284	0.591015	0.425924	0.945422	0	0
0.74	-2.87657	1.31474	1.31357	0.745978	0.621321	1.03972	0.0186607	0.118091	-0.175702	0.0453491	-0.174884	0	0	0.512149	-0.138731	-0.246714	0.152515	-0.237163	0	0	0.141344	0.0718273	0.0506716	-0.031757	-0.300161	0.0995423	0.858613	1.5708	0	0	-0.151707	-0.266205	0.594671	0.422738	0.940719	0	0
0.75	-2.87454	1.30579	1.30589	0.746272	0.609785	1.03635	0.0176944	0.120026	-0.170267	0.0508581	-0.166374	0	0	0.519118	-0.135713	-0.240476	0.0920704	-0.243895	0	0	0.147946	0.0759423	0.05203	-0.0318685	-0.304499	0.0985148	0.877473	1.5708	0	0	-0.156031	-0.264217	0.597944	0.420653	0.935642	0	0
